{"glyphs":{":":{"x_min":0,"x_max":185,"ha":185,"o":"m 35 24 q 35 38 44 47 q 54 57 67 57 q 80 57 90 47 q 100 38 100 24 q 100 10 90 1 q 80 -8 67 -8 q 54 -8 44 1 q 35 10 35 24 z m 87 443 q 87 456 96 466 q 106 476 119 476 q 132 476 142 466 q 152 456 152 443 q 152 430 142 420 q 132 411 119 411 q 106 411 96 420 q 87 430 87 443 z"},"$":{"x_min":0,"x_max":580,"ha":580,"o":"m 258 -8 q 224 -8 196 -2 q 170 4 148 16 q 126 28 108 45 q 91 62 76 83 l 78 85 q 80 86 82 87 q 82 88 85 88 q 88 88 93 82 q 98 76 106 66 q 115 56 128 45 q 140 34 159 24 q 178 15 202 8 q 227 2 260 2 l 318 366 q 288 376 261 388 q 234 399 212 416 q 190 434 178 458 q 165 482 165 518 q 165 555 179 589 q 194 623 220 649 q 246 675 285 691 q 323 707 371 708 l 386 801 q 388 809 393 809 l 398 809 l 382 708 q 430 707 466 690 q 502 674 531 639 l 529 636 q 528 633 524 633 q 520 633 516 638 q 512 642 505 650 q 498 656 488 665 q 477 673 462 680 q 448 688 427 692 q 407 698 380 698 l 329 374 q 360 364 390 352 q 421 340 446 322 q 470 305 486 280 q 502 254 502 216 q 502 172 486 132 q 470 92 439 61 q 408 31 366 12 q 322 -6 269 -8 l 250 -129 q 250 -137 243 -137 l 238 -137 z m 490 214 q 490 250 476 273 q 462 297 439 314 q 416 330 387 341 q 358 352 328 362 l 270 2 q 321 4 362 22 q 402 40 430 68 q 459 97 474 135 q 490 172 490 214 z m 176 520 q 176 488 188 465 q 200 442 220 426 q 240 410 265 399 q 291 388 319 378 l 370 698 q 324 696 288 682 q 252 667 227 642 q 202 618 189 586 q 176 554 176 520 z"},"?":{"x_min":0,"x_max":320,"ha":320,"o":"m 62 640 q 74 652 90 664 q 106 677 125 686 q 144 696 165 702 q 186 708 211 708 q 237 708 261 699 q 284 690 302 674 q 320 658 331 634 q 342 611 342 582 q 342 540 329 511 q 316 481 297 459 q 278 436 254 420 q 231 404 210 388 q 190 374 175 358 q 160 344 157 324 l 143 238 l 135 238 l 146 325 q 148 346 163 362 q 178 378 198 392 q 218 408 242 424 q 265 440 284 462 q 304 483 317 512 q 330 540 330 581 q 330 608 320 630 q 310 652 294 667 q 278 682 256 690 q 234 698 210 698 q 176 698 152 688 q 126 678 109 666 q 92 654 82 644 q 72 634 68 634 q 66 634 64 636 z m 90 24 q 90 38 99 47 q 108 57 122 57 q 136 57 145 47 q 155 38 155 24 q 155 10 145 1 q 136 -8 122 -8 q 108 -8 99 1 q 90 10 90 24 z"},"<":{"x_min":0,"x_max":534,"ha":534,"o":"m 94 338 l 481 524 l 480 518 q 480 513 470 508 l 128 345 q 122 342 116 339 q 110 336 104 335 q 114 332 126 325 l 427 162 q 436 158 436 153 q 436 152 435 151 q 435 150 435 148 q 434 147 434 146 l 92 332 z"},"'":{"x_min":0,"x_max":197,"ha":197,"o":"m 159 700 l 141 553 l 131 477 q 131 473 127 473 q 123 473 123 477 l 131 553 l 150 700 z"},"=":{"x_min":0,"x_max":580,"ha":580,"o":"m 89 270 l 489 270 l 488 260 l 88 260 z m 107 417 l 507 417 l 506 407 l 106 407 z"},"a":{"x_min":0,"x_max":477,"ha":477,"o":"m 361 0 l 358 0 q 354 0 353 2 q 352 4 352 6 l 376 215 q 357 166 332 126 q 308 85 280 56 q 252 26 220 10 q 188 -6 155 -6 q 122 -6 100 6 q 77 19 63 42 q 48 64 42 95 q 35 126 35 163 q 35 205 46 246 q 57 287 76 324 q 96 361 123 392 q 150 424 182 447 q 214 470 251 483 q 287 496 325 496 q 352 496 374 491 q 397 486 418 472 z m 155 4 q 187 4 218 20 q 250 37 278 68 q 306 99 332 143 q 358 186 378 242 l 406 467 q 388 477 368 482 q 348 486 325 486 q 289 486 254 474 q 220 461 189 439 q 158 417 132 386 q 106 356 87 320 q 68 284 58 244 q 47 204 47 163 q 47 126 53 97 q 60 68 72 47 q 86 26 106 15 q 126 4 155 4 z"},"L":{"x_min":0,"x_max":468,"ha":468,"o":"m 93 11 l 422 11 l 420 0 l 80 0 l 166 700 l 178 700 z"},"3":{"x_min":0,"x_max":580,"ha":580,"o":"m 361 708 q 394 708 425 699 q 456 690 479 672 q 502 653 516 624 q 530 596 530 556 q 530 514 514 481 q 498 447 472 422 q 446 396 414 381 q 381 366 348 360 q 387 357 417 344 q 446 332 466 311 q 486 290 497 264 q 507 237 507 206 q 507 163 488 124 q 470 85 436 56 q 404 26 359 9 q 315 -8 264 -8 q 170 -8 121 38 q 73 84 65 168 l 69 168 q 70 168 73 167 q 76 166 77 162 q 82 126 94 96 q 107 66 130 46 q 152 24 185 13 q 218 2 265 2 q 320 2 363 21 q 406 40 435 70 q 464 99 480 135 q 495 171 495 205 q 495 236 485 264 q 475 292 452 312 q 428 332 389 344 q 350 356 293 356 l 294 364 q 344 366 385 380 q 426 394 456 419 q 486 444 502 478 q 518 513 518 555 q 518 592 505 619 q 492 646 470 664 q 448 681 420 690 q 392 698 360 698 q 321 698 286 686 q 252 674 224 652 q 196 630 176 600 q 156 570 146 534 q 144 526 138 526 l 133 526 q 144 568 165 602 q 186 636 216 659 q 246 682 282 695 q 320 708 361 708 z"},";":{"x_min":0,"x_max":185,"ha":185,"o":"m 95 443 q 95 456 104 466 q 114 476 127 476 q 140 476 150 466 q 160 456 160 443 q 160 430 150 420 q 140 411 127 411 q 114 411 104 420 q 95 430 95 443 z m 37 26 q 37 38 45 48 q 54 57 67 57 q 80 57 89 47 q 98 37 98 18 q 98 -20 81 -56 q 64 -92 39 -119 l 38 -118 q 36 -116 36 -114 q 36 -112 38 -109 q 42 -104 50 -92 q 58 -82 66 -67 q 74 -52 81 -34 q 88 -15 88 6 q 80 -4 65 -4 q 53 -4 45 4 q 37 12 37 26 z"},"J":{"x_min":0,"x_max":425,"ha":425,"o":"m 310 206 q 303 148 286 108 q 268 68 243 42 q 218 16 185 4 q 152 -8 114 -8 l 112 -8 q 85 -8 64 -4 q 42 0 23 7 l 24 10 q 24 12 26 13 q 27 15 31 15 q 36 15 41 13 q 47 11 56 8 q 66 6 79 4 q 92 2 113 2 q 146 2 176 12 q 206 22 231 46 q 256 69 273 108 q 291 148 298 206 l 359 700 l 371 700 z"},"V":{"x_min":0,"x_max":566,"ha":566,"o":"m 65 700 l 72 700 q 78 700 79 695 l 250 37 q 251 32 252 27 q 254 22 255 16 q 258 22 260 27 q 262 32 265 37 l 597 695 q 600 700 604 700 l 612 700 l 258 0 l 248 0 z"},"\"":{"x_min":0,"x_max":314,"ha":314,"o":"m 159 700 l 141 553 l 131 477 q 131 473 127 473 q 123 473 123 477 l 131 553 l 150 700 z m 277 700 l 259 553 l 249 477 q 249 473 245 473 q 241 473 241 477 l 249 553 l 268 700 z"},"7":{"x_min":0,"x_max":580,"ha":580,"o":"m 586 700 l 586 697 q 586 694 585 692 q 584 688 582 686 l 152 8 q 150 4 147 2 q 144 0 139 0 l 133 0 l 566 682 q 567 684 569 686 q 570 688 572 689 l 134 689 q 128 689 128 692 l 129 700 z"},"S":{"x_min":0,"x_max":475,"ha":475,"o":"m 454 636 q 452 633 449 633 q 446 633 442 638 q 438 642 431 650 q 424 657 415 666 q 405 674 391 681 q 376 688 357 693 q 338 698 312 698 q 269 698 235 684 q 201 669 177 644 q 154 620 141 586 q 128 554 128 517 q 128 482 141 459 q 154 436 174 420 q 196 404 222 392 q 248 380 276 370 q 304 359 331 347 q 358 336 378 319 q 400 302 412 278 q 425 254 425 218 q 425 172 409 131 q 394 90 364 59 q 335 28 293 10 q 252 -8 200 -8 q 168 -8 142 -2 q 118 4 98 16 q 78 28 61 45 q 45 62 31 83 l 33 85 q 36 88 40 88 q 42 88 47 82 q 52 76 60 66 q 68 56 79 45 q 91 34 108 24 q 125 14 148 8 q 170 2 201 2 q 250 2 289 19 q 328 36 356 66 q 384 95 399 134 q 414 174 414 218 q 414 252 401 275 q 388 298 368 314 q 346 330 320 341 q 294 352 266 363 q 238 373 211 385 q 184 396 164 414 q 142 430 130 455 q 117 480 117 516 q 117 554 130 589 q 144 624 169 650 q 194 676 230 692 q 267 708 314 708 q 360 708 395 692 q 429 675 456 639 z"},"}":{"x_min":0,"x_max":276,"ha":276,"o":"m 156 196 q 156 178 158 158 q 159 139 160 120 q 162 100 164 80 q 165 61 165 43 q 165 6 155 -24 q 145 -54 128 -76 q 110 -98 86 -109 q 63 -121 36 -121 l 10 -121 l 10 -118 q 12 -112 17 -112 l 37 -112 q 60 -112 82 -102 q 103 -92 119 -72 q 135 -53 144 -24 q 154 5 154 43 q 154 61 153 81 q 152 100 150 121 q 148 141 147 160 q 146 180 146 197 q 146 226 154 248 q 162 269 173 283 q 185 298 199 305 q 213 312 226 315 q 216 317 205 322 q 195 328 187 337 q 178 346 173 360 q 168 372 168 389 q 168 420 177 450 q 186 481 198 512 q 209 542 218 574 q 228 606 228 640 q 228 663 222 682 q 216 700 204 714 q 193 728 177 735 q 161 742 142 742 l 122 742 q 116 742 116 747 l 116 749 q 116 750 117 751 l 143 751 q 165 751 183 742 q 200 734 213 718 q 226 703 232 682 q 239 662 239 639 q 239 616 234 594 q 230 572 224 552 q 217 532 209 512 q 201 492 194 472 q 188 452 184 432 q 179 412 179 390 q 179 374 184 362 q 189 349 198 340 q 208 330 220 325 q 233 320 249 320 l 247 310 q 229 310 212 303 q 196 296 184 282 q 171 268 164 246 q 156 225 156 196 z"},"Z":{"x_min":0,"x_max":590,"ha":590,"o":"m 588 700 l 587 695 q 586 692 585 691 q 584 690 582 687 l 52 11 l 502 11 l 500 0 l 34 0 l 35 5 q 36 8 37 8 q 38 10 39 12 l 570 689 l 126 689 l 128 700 z"},"x":{"x_min":0,"x_max":391,"ha":391,"o":"m 190 260 l 61 490 l 67 490 q 74 490 76 486 l 198 268 q 199 269 200 270 q 201 272 202 273 l 371 486 q 374 490 378 490 l 387 490 l 203 260 l 347 0 l 341 0 q 334 0 331 5 l 194 253 q 192 250 190 247 l -2 4 q -4 2 -6 1 q -8 0 -11 0 l -19 0 z"},")":{"x_min":0,"x_max":276,"ha":276,"o":"m 189 403 q 189 444 184 488 q 180 532 170 576 q 160 619 146 661 q 132 702 113 741 q 112 742 112 743 q 112 744 112 745 q 112 748 117 750 l 120 752 q 163 662 182 574 q 200 486 200 407 q 200 367 198 328 q 196 290 189 251 q 182 212 170 170 q 157 129 136 84 q 116 38 85 -12 q 55 -62 13 -120 l 10 -118 q 10 -118 8 -117 q 6 -116 6 -114 q 6 -112 9 -109 q 54 -47 88 13 q 122 73 144 135 q 167 197 178 263 q 189 329 189 403 z"},"&":{"x_min":0,"x_max":627,"ha":627,"o":"m 357 708 q 384 708 407 699 q 430 690 447 673 q 464 656 474 631 q 484 606 484 576 l 480 576 q 478 576 476 578 q 474 580 474 584 q 474 600 468 619 q 462 639 448 656 q 434 674 412 686 q 389 698 357 698 q 322 698 292 686 q 263 674 242 652 q 220 631 209 602 q 197 572 197 537 q 197 497 216 457 q 234 416 268 376 l 458 149 q 486 188 505 230 q 524 270 530 305 q 532 311 538 311 l 543 311 q 538 274 518 229 q 498 184 465 141 l 583 0 l 575 0 q 570 0 568 0 q 565 1 561 5 l 457 130 q 434 102 407 77 q 380 52 348 33 q 316 14 280 3 q 244 -8 205 -8 q 175 -8 146 2 q 118 13 96 33 q 74 54 60 83 q 47 112 47 150 q 47 192 63 230 q 78 267 105 298 q 132 328 168 352 q 204 375 244 388 q 214 426 200 460 q 185 494 185 533 q 185 572 198 604 q 211 636 234 659 q 257 682 288 695 q 320 708 357 708 z m 59 151 q 59 114 73 86 q 86 58 108 39 q 130 20 156 11 q 182 2 207 2 q 244 2 279 13 q 314 24 345 42 q 376 61 402 86 q 428 110 450 138 l 250 380 q 210 367 175 344 q 140 322 114 292 q 88 262 74 226 q 59 190 59 151 z"},"_":{"x_min":0,"x_max":363,"ha":363,"o":"m 318 -120 l 316 -131 l -46 -131 l -45 -120 z"},"v":{"x_min":0,"x_max":430,"ha":430,"o":"m 189 0 l 181 0 l 45 490 l 51 490 q 55 490 56 488 q 58 486 59 483 l 183 34 q 184 29 185 24 q 186 20 186 14 q 188 19 190 24 q 192 28 195 34 l 429 483 q 432 490 439 490 l 445 490 z"},"O":{"x_min":0,"x_max":733,"ha":733,"o":"m 684 407 q 684 312 658 235 q 631 158 584 105 q 538 51 474 22 q 411 -7 337 -7 q 278 -7 230 14 q 183 36 149 74 q 116 114 97 169 q 79 224 79 293 q 79 356 91 412 q 103 467 125 513 q 148 559 179 595 q 210 632 248 656 q 287 682 332 695 q 376 708 425 708 q 484 708 532 687 q 580 666 614 626 q 648 587 666 531 q 684 476 684 407 z m 671 407 q 671 474 654 528 q 636 582 604 620 q 572 658 526 678 q 480 698 424 698 q 378 698 335 686 q 292 673 255 649 q 218 625 188 590 q 158 554 136 510 q 114 465 103 411 q 91 356 91 294 q 91 227 109 173 q 126 119 159 81 q 192 44 237 23 q 282 3 338 3 q 409 3 470 31 q 531 58 576 111 q 620 163 646 238 q 671 313 671 407 z"},"(":{"x_min":0,"x_max":276,"ha":276,"o":"m 104 229 q 104 188 109 144 q 114 100 124 56 q 134 13 148 -29 q 162 -71 180 -109 q 181 -110 182 -111 q 182 -112 182 -113 q 182 -116 176 -118 l 174 -120 q 130 -30 112 58 q 94 146 94 225 q 94 265 96 304 q 98 342 105 381 q 112 420 124 462 q 136 503 157 548 q 178 594 208 644 q 238 694 280 752 l 283 750 q 284 750 286 749 q 287 748 287 746 q 287 744 284 741 q 239 679 205 619 q 172 559 149 497 q 126 435 116 369 q 104 303 104 229 z"},"C":{"x_min":0,"x_max":648,"ha":648,"o":"m 340 2 q 380 2 412 9 q 444 16 468 26 q 494 36 512 48 q 530 60 543 70 q 556 81 563 88 q 570 94 572 94 q 574 94 576 93 q 577 92 578 91 l 579 89 q 556 68 530 50 q 505 32 476 19 q 446 6 412 -1 q 378 -8 339 -8 q 280 -8 232 13 q 184 34 150 74 q 116 114 98 170 q 79 226 79 295 q 79 387 106 463 q 134 540 182 594 q 230 648 295 678 q 360 708 436 708 q 471 708 498 703 q 526 698 549 688 q 572 678 592 662 q 612 646 632 626 l 631 624 q 629 621 624 621 q 620 621 610 633 q 599 645 578 660 q 556 674 522 686 q 488 698 435 698 q 362 698 300 670 q 237 642 190 589 q 144 536 118 462 q 91 388 91 295 q 91 228 109 173 q 128 119 160 81 q 194 43 239 22 q 285 2 340 2 z"},"W":{"x_min":0,"x_max":883,"ha":883,"o":"m 65 700 l 74 700 q 78 700 79 695 l 187 37 q 188 31 189 26 q 190 21 190 15 q 192 21 194 26 q 196 31 199 37 l 490 695 q 492 700 497 700 l 499 700 q 504 700 504 695 l 633 37 q 634 32 635 26 q 636 21 636 15 q 638 21 640 26 q 642 31 645 37 l 914 695 q 915 698 917 699 q 920 700 922 700 l 930 700 l 640 0 l 630 0 l 498 672 q 497 676 496 680 q 496 684 496 688 q 495 684 493 680 q 492 676 490 672 l 193 0 l 183 0 z"},"A":{"x_min":0,"x_max":566,"ha":566,"o":"m 527 0 l 518 0 q 514 0 512 5 l 452 239 l 113 239 l -5 5 q -8 0 -13 0 l -21 0 l 334 700 l 344 700 z m 118 249 l 449 249 l 342 663 q 340 668 339 673 q 338 678 337 684 q 334 678 332 674 q 330 668 327 663 z"},"f":{"x_min":0,"x_max":268,"ha":268,"o":"m 124 460 l 68 5 l 49 -120 q 48 -124 46 -125 q 44 -126 43 -126 l 41 -126 l 112 460 l 39 462 q 34 462 34 466 l 34 469 l 114 469 l 123 544 q 128 586 141 617 q 154 648 173 668 q 192 688 216 697 q 240 707 267 707 q 280 707 294 704 q 307 702 317 696 l 316 694 q 316 692 315 691 q 314 689 311 689 q 306 689 295 693 q 284 697 266 697 q 242 697 220 689 q 198 680 181 662 q 164 644 152 615 q 140 586 134 544 l 124 469 l 277 469 l 275 460 z"},"Q":{"x_min":0,"x_max":732,"ha":732,"o":"m 684 407 q 684 339 670 280 q 656 222 632 174 q 606 126 571 90 q 536 54 493 31 l 639 -163 l 632 -163 q 624 -163 622 -159 l 484 26 q 450 10 414 2 q 377 -7 337 -7 q 278 -7 230 14 q 183 36 149 74 q 116 114 97 169 q 79 224 79 293 q 79 356 91 412 q 103 467 125 513 q 148 559 179 595 q 210 632 248 656 q 287 682 332 695 q 376 708 425 708 q 484 708 532 687 q 580 666 614 626 q 648 587 666 531 q 684 476 684 407 z m 671 407 q 671 474 654 528 q 636 582 604 620 q 572 658 526 678 q 480 698 424 698 q 378 698 335 686 q 292 673 255 649 q 218 625 188 590 q 158 554 136 510 q 114 465 103 411 q 91 356 91 294 q 91 227 109 173 q 126 119 159 81 q 192 44 237 23 q 282 3 338 3 q 409 3 470 31 q 531 58 576 111 q 620 163 646 238 q 671 313 671 407 z"},"w":{"x_min":0,"x_max":657,"ha":657,"o":"m 45 490 l 50 490 q 56 490 58 483 l 142 34 q 143 28 144 24 q 144 19 144 14 q 148 23 153 34 l 352 488 q 354 493 358 493 l 360 493 q 362 493 363 492 q 364 490 364 488 l 452 34 q 453 28 454 23 q 455 18 456 13 q 458 18 460 23 q 462 28 464 34 l 657 483 q 660 490 666 490 l 672 490 l 458 0 l 453 0 q 449 0 448 5 l 359 461 q 358 465 358 468 q 358 472 357 476 q 354 468 351 461 l 149 5 q 146 0 144 0 l 139 0 z"},"-":{"x_min":0,"x_max":294,"ha":294,"o":"m 53 299 l 255 299 l 254 289 l 51 289 z"},"E":{"x_min":0,"x_max":552,"ha":552,"o":"m 543 700 l 541 689 l 176 689 l 136 361 l 446 361 l 444 350 l 135 350 l 93 11 l 459 11 l 457 0 l 80 0 l 166 700 z"},"s":{"x_min":0,"x_max":383,"ha":383,"o":"m 352 449 q 350 445 348 444 q 347 443 345 443 q 342 443 335 450 q 328 456 316 465 q 304 473 284 480 q 264 487 233 487 q 204 487 178 477 q 152 467 132 450 q 112 432 101 410 q 89 388 89 363 q 89 340 99 324 q 109 308 125 298 q 142 286 162 278 q 183 270 205 263 q 226 255 248 246 q 268 238 285 225 q 301 212 311 194 q 321 176 321 150 q 321 120 310 92 q 298 64 276 41 q 255 19 224 6 q 194 -8 155 -8 q 131 -8 112 -4 q 94 0 78 8 q 64 16 51 26 q 38 38 26 51 l 29 54 q 32 57 34 57 q 36 57 44 48 q 50 40 64 29 q 78 18 101 10 q 123 1 157 1 q 191 1 220 14 q 248 26 268 47 q 288 68 300 94 q 311 121 311 150 q 311 174 301 192 q 291 208 275 220 q 258 232 238 240 q 216 248 195 256 q 173 263 152 272 q 132 280 115 292 q 99 304 89 321 q 79 338 79 363 q 79 390 91 414 q 104 438 125 456 q 146 475 174 486 q 202 497 235 497 q 274 497 301 486 q 328 474 352 449 z"},">":{"x_min":0,"x_max":534,"ha":534,"o":"m 464 332 l 77 146 l 78 152 q 78 157 88 162 l 430 325 q 436 328 442 331 q 448 334 454 335 q 444 338 432 345 l 131 508 q 122 512 122 517 q 122 518 122 519 q 122 520 123 522 q 123 523 124 524 l 466 338 z"},"l":{"x_min":0,"x_max":212,"ha":212,"o":"m 71 0 l 158 720 l 169 720 l 81 0 z"},"8":{"x_min":0,"x_max":580,"ha":580,"o":"m 259 -8 q 214 -8 178 4 q 141 15 115 36 q 88 58 74 88 q 60 119 60 157 q 60 207 76 244 q 93 281 120 306 q 148 332 184 346 q 219 360 257 366 q 226 372 202 386 q 179 400 163 419 q 146 438 138 463 q 130 488 130 515 q 130 554 145 590 q 160 625 189 651 q 218 678 258 693 q 298 708 347 708 q 389 708 422 696 q 454 684 476 662 q 498 642 510 613 q 521 585 521 553 q 521 518 509 486 q 498 456 476 431 q 454 406 422 389 q 391 372 352 365 q 382 360 410 348 q 438 336 458 317 q 480 297 492 269 q 504 240 504 203 q 504 154 485 114 q 466 75 434 48 q 400 21 356 6 q 311 -8 259 -8 z m 260 2 q 309 2 352 16 q 394 30 425 56 q 456 82 474 119 q 492 156 492 203 q 492 234 483 258 q 474 282 460 299 q 446 316 426 328 q 408 340 386 347 q 366 354 344 357 q 323 360 304 360 q 282 360 256 356 q 231 352 206 344 q 180 335 156 320 q 132 306 114 283 q 95 261 84 230 q 73 200 73 159 q 73 124 86 94 q 100 66 124 45 q 149 24 184 13 q 218 2 260 2 z m 305 370 q 355 370 393 385 q 431 400 457 426 q 482 452 496 484 q 509 518 509 553 q 509 584 498 610 q 488 637 466 656 q 446 676 415 687 q 385 698 346 698 q 300 698 262 684 q 224 670 198 646 q 171 621 156 588 q 142 554 142 516 q 142 488 152 461 q 162 434 182 414 q 202 394 233 382 q 264 370 305 370 z"},"\\":{"x_min":0,"x_max":315,"ha":315,"o":"m 59 720 l 64 720 q 72 720 73 714 l 275 -39 l 271 -39 q 268 -39 265 -38 q 262 -37 261 -33 z"},"e":{"x_min":0,"x_max":435,"ha":435,"o":"m 400 407 q 400 388 395 370 q 390 352 376 336 q 362 320 338 306 q 313 292 275 280 q 236 268 182 257 q 128 247 56 239 q 51 210 51 181 q 51 140 60 107 q 70 74 89 52 q 108 28 136 16 q 164 4 202 4 q 230 4 254 11 q 277 18 296 28 q 314 38 328 49 q 342 60 353 70 q 363 80 370 87 q 377 94 381 94 q 382 94 384 94 q 384 94 387 91 q 364 66 341 47 q 319 29 296 17 q 274 5 250 0 q 227 -6 201 -6 q 161 -6 131 7 q 100 20 80 44 q 60 68 50 103 q 40 138 40 181 q 40 217 47 255 q 54 292 68 328 q 82 362 102 394 q 123 424 150 448 q 176 470 209 484 q 242 497 281 497 q 316 497 339 488 q 362 478 376 464 q 389 450 394 434 q 400 419 400 407 z m 281 487 q 234 487 196 466 q 158 446 130 412 q 102 379 83 336 q 65 294 57 249 q 131 257 184 267 q 238 278 275 290 q 312 302 335 315 q 358 329 370 344 q 382 359 387 375 q 391 390 391 407 q 391 419 385 433 q 380 447 367 459 q 354 471 333 479 q 312 487 281 487 z"},"b":{"x_min":0,"x_max":496,"ha":496,"o":"m 61 0 l 148 720 l 159 720 l 104 276 q 124 325 150 366 q 176 406 205 436 q 234 464 266 481 q 299 497 332 497 q 364 497 388 484 q 412 472 428 449 q 444 426 452 396 q 459 365 459 329 q 459 294 452 255 q 444 216 430 179 q 416 142 395 108 q 374 74 348 49 q 322 24 289 9 q 257 -6 220 -6 q 176 -6 139 16 q 102 37 80 82 l 69 7 q 68 4 68 2 q 68 0 64 0 z m 332 487 q 300 487 267 470 q 235 454 205 422 q 175 392 148 347 q 122 302 101 247 l 83 96 q 95 71 110 53 q 126 36 143 25 q 161 14 181 9 q 200 4 221 4 q 257 4 288 18 q 318 33 344 58 q 369 82 388 115 q 408 148 421 184 q 434 220 441 257 q 448 294 448 329 q 448 366 440 395 q 433 424 418 444 q 404 465 382 476 q 360 487 332 487 z"},"%":{"x_min":0,"x_max":691,"ha":691,"o":"m 342 565 q 342 512 329 472 q 316 434 295 408 q 274 382 246 370 q 218 357 189 357 q 166 357 145 366 q 125 374 110 392 q 96 410 87 437 q 79 464 79 499 q 79 552 92 592 q 104 631 125 657 q 146 682 174 695 q 202 708 232 708 q 255 708 275 699 q 296 690 310 672 q 325 654 334 628 q 342 601 342 565 z m 331 565 q 331 599 323 624 q 316 650 302 666 q 288 682 270 691 q 252 699 231 699 q 203 699 178 687 q 152 676 132 651 q 112 626 101 588 q 89 550 89 499 q 89 465 97 440 q 104 415 118 398 q 132 382 150 374 q 168 366 190 366 q 218 366 243 378 q 268 390 288 414 q 308 438 319 476 q 331 513 331 565 z m 618 696 q 622 700 627 700 l 634 700 l 93 4 q 90 0 85 0 l 78 0 z m 638 200 q 638 146 625 108 q 612 68 591 43 q 570 17 542 4 q 514 -8 485 -8 q 462 -8 441 1 q 421 10 406 27 q 392 45 383 72 q 375 98 375 134 q 375 187 388 226 q 400 266 421 292 q 442 318 470 330 q 498 343 528 343 q 551 343 571 334 q 592 326 606 308 q 621 290 630 263 q 638 236 638 200 z m 627 200 q 627 234 619 259 q 612 284 598 301 q 584 318 566 326 q 548 334 527 334 q 499 334 474 322 q 448 310 428 286 q 408 261 397 223 q 385 186 385 134 q 385 100 393 75 q 400 50 414 34 q 428 17 446 9 q 464 1 486 1 q 514 1 539 13 q 564 24 584 49 q 604 73 615 110 q 627 148 627 200 z"},"m":{"x_min":0,"x_max":768,"ha":768,"o":"m 57 0 l 116 492 l 118 492 q 122 492 123 490 q 124 488 124 485 l 102 294 q 122 340 146 378 q 171 416 199 442 q 227 468 258 483 q 288 497 320 497 q 344 497 361 490 q 378 482 388 469 q 398 455 402 434 q 406 414 406 388 q 406 372 405 353 q 404 335 401 314 q 420 360 445 394 q 470 429 498 452 q 526 474 556 486 q 586 497 613 497 q 638 497 656 489 q 674 482 684 467 q 695 452 700 430 q 704 408 704 380 q 704 350 700 314 l 663 0 l 652 0 l 689 314 q 694 350 694 380 q 694 406 689 426 q 685 446 676 459 q 666 473 650 480 q 635 487 612 487 q 585 487 556 476 q 528 464 500 440 q 472 416 446 380 q 420 342 400 292 l 365 0 l 354 0 l 391 314 q 394 335 395 353 q 396 372 396 388 q 396 412 393 430 q 389 448 380 461 q 371 474 356 480 q 341 487 319 487 q 254 487 199 431 q 144 375 100 270 l 68 0 z"},"#":{"x_min":0,"x_max":580,"ha":580,"o":"m 357 230 l 278 0 l 275 0 q 269 0 269 4 q 269 5 270 8 q 271 12 274 21 l 346 230 l 175 230 l 99 8 q 96 0 90 0 l 85 0 l 164 230 l 57 230 q 51 230 51 234 l 51 239 l 166 239 l 243 461 l 107 461 l 107 464 q 107 467 110 468 q 112 470 115 470 l 245 470 l 322 692 q 324 700 332 700 l 336 700 l 256 470 l 427 470 l 507 700 l 512 700 q 516 700 516 696 q 516 694 515 690 l 438 470 l 556 470 l 556 467 q 554 461 548 461 l 436 461 l 360 239 l 492 239 q 499 239 499 233 q 499 232 499 232 q 498 232 498 231 q 498 230 498 230 z m 178 239 l 348 239 l 425 461 l 254 461 z"},",":{"x_min":0,"x_max":185,"ha":185,"o":"m 37 26 q 37 38 45 48 q 54 57 67 57 q 80 57 89 47 q 98 37 98 18 q 98 -20 81 -56 q 64 -92 39 -119 l 38 -118 q 36 -116 36 -114 q 36 -112 38 -109 q 42 -104 50 -92 q 58 -82 66 -67 q 74 -52 81 -34 q 88 -15 88 6 q 80 -4 65 -4 q 53 -4 45 4 q 37 12 37 26 z"},"n":{"x_min":0,"x_max":499,"ha":499,"o":"m 57 0 l 116 492 l 118 492 q 122 492 123 490 q 124 488 124 485 l 102 294 q 122 340 148 378 q 174 415 204 442 q 234 468 266 483 q 298 497 330 497 q 384 497 409 463 q 434 428 434 364 q 434 353 434 340 q 432 328 431 314 l 394 0 l 383 0 l 420 314 q 422 327 422 340 q 424 352 424 364 q 424 422 401 455 q 378 487 329 487 q 298 487 266 472 q 234 456 205 428 q 175 400 148 360 q 122 320 100 270 l 68 0 z"},"h":{"x_min":0,"x_max":502,"ha":502,"o":"m 61 0 l 148 720 l 159 720 l 108 300 q 128 344 154 381 q 180 418 209 443 q 238 469 270 483 q 302 497 333 497 q 388 497 412 463 q 438 429 438 366 q 438 354 436 341 q 436 328 434 314 l 397 0 l 386 0 l 423 314 q 426 340 426 364 q 426 422 404 455 q 382 487 332 487 q 302 487 270 472 q 239 458 210 430 q 180 402 153 362 q 126 323 105 274 l 72 0 z"},"z":{"x_min":0,"x_max":410,"ha":410,"o":"m 400 486 q 400 484 396 479 l 23 10 l 328 10 l 327 0 l 7 0 l 7 3 q 7 5 8 7 q 10 8 11 10 l 384 480 l 81 480 l 83 490 l 401 490 z"},"B":{"x_min":0,"x_max":585,"ha":585,"o":"m 80 0 l 166 700 l 334 700 q 427 700 472 661 q 518 622 518 552 q 518 514 504 481 q 491 447 468 420 q 444 394 413 377 q 382 360 346 357 q 384 354 413 342 q 443 330 464 310 q 484 291 495 264 q 506 238 506 205 q 506 156 490 118 q 474 80 444 54 q 414 28 371 14 q 328 0 273 0 z m 135 350 l 93 10 l 274 10 q 326 10 366 22 q 407 35 436 60 q 464 84 479 120 q 494 156 494 204 q 494 238 482 264 q 470 292 447 310 q 424 330 391 340 q 358 350 317 350 z m 136 360 l 297 360 q 352 360 392 378 q 432 395 458 423 q 483 450 495 484 q 507 518 507 550 q 507 616 464 653 q 422 690 333 690 l 177 690 z"},"K":{"x_min":0,"x_max":591,"ha":591,"o":"m 154 362 l 198 362 q 206 362 213 362 q 219 363 224 365 q 230 366 234 370 q 239 374 245 379 l 582 692 q 588 698 592 699 q 596 700 600 700 l 607 700 l 255 374 q 246 366 240 362 q 234 358 226 357 q 234 356 239 352 q 244 348 250 341 l 539 0 l 534 0 q 526 0 524 2 q 521 3 518 7 l 242 332 q 239 336 236 339 q 234 342 229 346 q 224 348 217 350 q 210 352 197 352 l 153 352 l 110 0 l 98 0 l 184 701 l 196 701 z"},"R":{"x_min":0,"x_max":570,"ha":570,"o":"m 152 338 l 110 0 l 98 0 l 184 700 l 334 700 q 426 700 474 664 q 523 627 523 551 q 523 502 506 463 q 488 424 458 397 q 426 370 384 354 q 341 340 290 338 q 298 334 304 325 l 515 0 l 507 0 q 503 0 500 1 q 498 2 495 6 l 294 320 q 290 325 287 328 q 284 332 279 334 q 274 336 268 337 q 262 338 252 338 z m 153 348 l 282 348 q 334 348 376 362 q 418 376 448 402 q 478 428 494 465 q 511 502 511 550 q 511 622 466 656 q 420 690 333 690 l 195 690 l 192 664 z"},"T":{"x_min":0,"x_max":534,"ha":534,"o":"m 571 700 l 570 689 l 328 689 l 244 0 l 232 0 l 316 689 l 73 689 l 74 700 z"},"P":{"x_min":0,"x_max":533,"ha":533,"o":"m 146 300 l 110 0 l 98 0 l 184 700 l 330 700 q 426 700 476 658 q 526 616 526 532 q 526 480 508 438 q 489 395 456 364 q 423 334 378 317 q 334 300 281 300 z m 194 690 l 148 310 l 282 310 q 333 310 376 327 q 418 344 449 373 q 480 402 497 442 q 514 482 514 530 q 514 608 468 649 q 422 690 329 690 z"},"|":{"x_min":0,"x_max":300,"ha":300,"o":"m 115 751 l 125 751 l 125 -180 l 115 -180 z"},"t":{"x_min":0,"x_max":317,"ha":317,"o":"m 94 73 q 94 76 94 80 q 94 85 95 94 q 96 102 98 116 q 100 130 102 151 l 140 459 l 65 459 q 59 459 59 464 l 60 467 l 140 469 l 168 666 q 168 668 170 671 q 172 673 174 673 l 177 673 l 152 469 l 305 469 l 304 459 l 150 459 l 113 150 q 110 130 109 116 q 108 102 106 94 q 106 84 105 80 q 105 75 105 73 q 105 54 110 40 q 114 27 123 18 q 132 10 143 6 q 154 2 168 2 q 188 2 203 8 q 218 15 229 22 q 240 30 248 36 q 254 43 257 43 q 259 43 261 41 l 262 39 q 246 18 220 5 q 194 -8 167 -8 q 132 -8 113 11 q 94 30 94 73 z"},"M":{"x_min":0,"x_max":827,"ha":827,"o":"m 404 157 q 406 154 406 150 l 762 696 q 764 700 769 700 l 773 700 l 687 0 l 677 0 l 759 669 q 760 672 760 674 q 760 675 760 676 l 414 145 q 410 140 407 140 l 404 140 q 400 140 398 145 l 172 678 q 172 676 172 674 q 172 672 172 669 l 90 0 l 80 0 l 166 700 l 170 700 q 172 700 174 699 q 176 698 177 696 l 404 157 z"},"g":{"x_min":0,"x_max":419,"ha":419,"o":"m 358 370 q 358 340 350 315 q 342 290 330 270 q 319 250 306 232 q 293 215 282 199 q 271 182 264 166 q 256 150 256 132 q 256 118 263 106 q 270 94 280 83 q 290 71 302 59 q 314 47 324 32 q 334 18 341 1 q 348 -16 348 -38 q 348 -66 333 -93 q 318 -120 290 -141 q 262 -162 224 -175 q 185 -188 139 -188 q 103 -188 72 -181 q 42 -174 20 -159 q -2 -145 -14 -124 q -27 -103 -27 -75 q -27 -43 -10 -16 q 6 12 36 31 q 67 51 110 62 q 153 74 206 74 q 224 74 241 72 q 259 71 278 68 q 265 82 256 96 q 246 111 246 132 q 246 142 248 152 q 250 161 254 172 q 258 182 266 194 q 274 207 288 223 q 266 207 241 198 q 216 189 192 189 q 164 189 140 198 q 116 206 100 223 q 84 240 74 264 q 65 289 65 320 q 65 354 76 385 q 88 417 109 442 q 130 466 161 482 q 192 497 231 497 q 280 497 312 473 l 436 473 l 436 469 q 436 468 434 466 q 432 464 427 463 l 324 463 q 340 447 349 424 q 358 400 358 370 z m 337 -38 q 337 -20 333 -6 q 328 8 322 19 q 314 30 306 40 q 296 50 288 58 q 266 61 247 62 q 228 64 210 64 q 154 64 111 53 q 69 42 41 22 q 12 3 -2 -22 q -16 -48 -16 -75 q -16 -100 -4 -119 q 7 -138 28 -151 q 48 -164 77 -171 q 106 -178 140 -178 q 184 -178 221 -166 q 257 -154 283 -134 q 308 -114 322 -89 q 336 -64 337 -38 z m 192 199 q 228 199 258 214 q 286 229 307 253 q 327 277 338 308 q 348 338 348 370 q 348 400 340 422 q 331 444 316 458 q 300 472 279 480 q 257 487 231 487 q 194 487 165 473 q 136 458 117 435 q 97 412 86 382 q 76 352 76 320 q 76 260 108 230 q 140 199 192 199 z"},"j":{"x_min":0,"x_max":204,"ha":204,"o":"m 139 490 l 68 -86 q 66 -108 57 -126 q 48 -145 35 -158 q 22 -172 4 -180 q -14 -187 -34 -187 q -46 -187 -55 -184 q -64 -182 -71 -176 l -69 -172 q -67 -168 -64 -168 q -60 -168 -53 -172 q -46 -177 -33 -177 q 6 -177 29 -152 q 52 -126 57 -86 l 128 490 z m 181 672 q 181 662 173 653 q 165 645 155 645 q 144 645 137 653 q 129 662 129 672 q 129 684 137 692 q 144 700 155 700 q 165 700 173 692 q 181 684 181 672 z"},"i":{"x_min":0,"x_max":213,"ha":213,"o":"m 142 490 l 82 0 l 71 0 l 131 490 z m 181 672 q 181 662 173 653 q 165 645 155 645 q 144 645 137 653 q 129 662 129 672 q 129 684 137 692 q 144 700 155 700 q 165 700 173 692 q 181 684 181 672 z"},"y":{"x_min":0,"x_max":430,"ha":430,"o":"m 97 -172 q 93 -180 86 -180 l 80 -180 l 180 8 l 45 490 l 51 490 q 55 490 56 488 q 58 487 59 483 l 184 38 q 186 29 188 19 q 189 24 191 29 q 194 34 196 38 l 431 485 q 434 490 439 490 l 446 490 z"},"@":{"x_min":0,"x_max":755,"ha":755,"o":"m 519 95 q 483 95 467 113 q 451 132 451 163 q 451 184 457 208 q 426 151 388 124 q 350 98 309 98 q 288 98 273 106 q 258 113 248 126 q 238 140 233 157 q 228 174 228 195 q 228 224 236 255 q 244 286 260 314 q 276 342 298 368 q 320 393 347 412 q 374 430 407 441 q 439 452 475 452 q 494 452 513 448 q 532 444 546 437 l 484 269 q 471 234 466 209 q 460 184 460 166 q 460 147 465 135 q 470 124 479 117 q 488 110 498 108 q 510 105 521 105 q 554 105 586 124 q 619 142 644 178 q 670 214 686 264 q 702 316 702 380 q 702 446 681 496 q 660 545 625 578 q 590 610 543 627 q 496 643 443 643 q 396 643 350 629 q 304 615 263 588 q 221 562 185 524 q 150 486 124 438 q 98 390 83 334 q 68 276 68 212 q 68 135 91 76 q 114 16 154 -24 q 194 -65 248 -86 q 302 -107 364 -107 q 431 -107 493 -89 q 554 -70 611 -33 q 613 -32 615 -32 q 618 -32 619 -35 q 619 -36 619 -37 q 620 -38 620 -39 q 620 -40 620 -41 q 562 -80 499 -99 q 436 -118 363 -118 q 298 -118 242 -96 q 186 -74 144 -33 q 104 9 80 70 q 57 131 57 210 q 57 275 72 333 q 86 392 113 441 q 140 490 176 529 q 212 568 255 596 q 298 624 346 638 q 394 653 444 653 q 498 653 547 636 q 596 619 633 585 q 670 550 691 499 q 713 448 713 380 q 713 315 696 262 q 680 210 653 173 q 626 136 590 115 q 556 95 519 95 z m 313 108 q 332 108 352 115 q 374 122 394 140 q 416 158 436 190 q 456 222 474 271 l 532 433 q 519 438 506 440 q 493 442 474 442 q 440 442 409 432 q 378 421 352 403 q 326 385 306 361 q 285 336 270 309 q 256 282 248 253 q 240 224 240 197 q 240 178 244 162 q 248 146 258 134 q 266 122 280 115 q 294 108 313 108 z"},".":{"x_min":0,"x_max":185,"ha":185,"o":"m 35 24 q 35 38 44 47 q 54 57 67 57 q 80 57 90 47 q 100 38 100 24 q 100 10 90 1 q 80 -8 67 -8 q 54 -8 44 1 q 35 10 35 24 z"},"p":{"x_min":0,"x_max":492,"ha":492,"o":"m 34 -180 l 116 492 l 118 492 q 122 492 123 490 q 124 488 124 484 l 100 276 q 120 324 146 365 q 171 406 200 435 q 230 464 262 481 q 295 497 328 497 q 360 497 384 484 q 408 472 424 449 q 440 426 448 396 q 455 365 455 329 q 455 294 448 255 q 440 216 426 179 q 412 142 391 108 q 370 74 344 49 q 318 24 285 9 q 253 -6 216 -6 q 173 -6 136 15 q 98 36 77 81 l 45 -180 z m 328 487 q 296 487 263 470 q 231 454 201 422 q 171 392 144 347 q 118 302 97 247 l 79 96 q 91 71 106 53 q 122 36 139 25 q 157 14 177 9 q 196 4 217 4 q 253 4 284 18 q 314 33 340 58 q 365 82 384 115 q 404 148 417 184 q 430 220 437 257 q 444 294 444 329 q 444 366 436 395 q 429 424 414 444 q 400 465 378 476 q 356 487 328 487 z"},"X":{"x_min":0,"x_max":518,"ha":518,"o":"m 268 374 l 86 700 l 96 700 q 100 700 102 698 q 104 696 106 692 l 276 380 q 278 383 281 387 l 526 695 q 528 698 531 699 q 533 700 536 700 l 545 700 l 284 374 l 490 0 l 479 0 q 475 0 474 2 q 472 5 471 7 l 274 367 q 272 364 270 361 l -10 7 q -12 4 -15 2 q -17 0 -20 0 l -31 0 z"},"*":{"x_min":0,"x_max":368,"ha":368,"o":"m 195 463 l 209 577 q 210 582 211 586 q 212 590 215 598 q 208 592 205 590 q 202 588 197 585 l 97 526 l 93 535 l 193 594 q 198 596 202 598 q 206 599 214 602 q 210 603 207 604 q 204 605 202 606 q 200 606 199 608 q 197 608 195 610 l 109 669 l 115 678 l 201 619 q 206 616 207 613 q 209 610 216 604 q 216 610 215 614 q 214 618 214 621 q 214 624 215 627 l 229 741 l 239 741 l 225 627 q 224 621 223 617 q 222 613 219 604 q 226 611 229 614 q 232 616 238 619 l 338 678 l 341 669 l 241 610 q 236 607 232 605 q 228 604 222 602 q 228 599 232 598 q 235 597 239 594 l 326 535 l 320 526 l 234 585 q 229 588 227 590 q 224 591 219 598 q 219 592 219 589 q 220 586 220 583 q 220 580 219 577 l 205 463 z"},"Y":{"x_min":0,"x_max":529,"ha":529,"o":"m 277 298 l 240 0 l 228 0 l 265 298 l 74 700 l 84 700 q 88 700 90 696 l 266 321 q 268 318 269 315 q 270 312 272 308 q 274 312 277 315 q 279 318 281 321 l 549 696 q 552 700 556 700 l 566 700 z"},"c":{"x_min":0,"x_max":428,"ha":428,"o":"m 389 91 q 362 60 338 42 q 314 22 292 12 q 269 2 247 -2 q 225 -6 201 -6 q 159 -6 129 9 q 98 24 79 49 q 60 74 50 110 q 41 144 41 185 q 41 224 49 262 q 57 300 72 335 q 86 370 108 400 q 128 430 155 451 q 181 473 212 486 q 243 498 278 498 q 302 498 321 493 q 340 488 356 480 q 372 471 384 459 q 396 447 407 433 l 405 431 q 403 429 400 429 q 396 429 390 438 q 382 448 368 458 q 354 470 332 479 q 310 488 277 488 q 228 488 188 462 q 146 436 116 394 q 86 351 70 296 q 53 242 53 185 q 53 147 61 114 q 70 81 88 56 q 106 32 134 18 q 162 4 201 4 q 231 4 255 11 q 280 18 298 28 q 317 38 331 49 q 345 60 355 70 q 366 80 372 87 q 378 94 383 94 q 384 94 386 94 q 386 94 389 91 z"},"!":{"x_min":0,"x_max":281,"ha":281,"o":"m 205 700 l 170 414 q 166 382 160 340 q 154 298 145 238 l 137 238 q 140 268 142 290 q 144 314 147 334 q 149 354 151 373 q 154 392 156 414 l 191 700 z m 84 24 q 84 38 93 47 q 102 57 116 57 q 130 57 139 47 q 149 38 149 24 q 149 10 139 1 q 130 -8 116 -8 q 102 -8 93 1 q 84 10 84 24 z"},"/":{"x_min":0,"x_max":315,"ha":315,"o":"m -19 -33 q -20 -37 -24 -38 q -27 -39 -30 -39 l -34 -39 l 353 714 q 356 720 363 720 l 368 720 z"},"[":{"x_min":0,"x_max":276,"ha":276,"o":"m 49 -121 l 156 751 l 282 751 l 282 748 q 282 742 275 742 l 166 742 l 60 -112 l 170 -112 q 176 -112 176 -118 l 175 -121 z"},"6":{"x_min":0,"x_max":580,"ha":580,"o":"m 324 409 q 368 409 402 395 q 436 382 460 358 q 484 334 496 300 q 509 267 509 228 q 509 175 490 132 q 470 88 436 57 q 402 26 357 9 q 311 -8 258 -8 q 216 -8 183 5 q 149 18 125 42 q 100 66 87 102 q 74 137 74 182 q 74 209 81 236 q 88 263 102 292 q 116 322 139 354 q 162 386 194 423 l 431 697 q 434 700 437 700 l 447 700 l 203 418 q 169 379 146 348 q 124 316 109 288 q 125 316 148 338 q 172 360 200 376 q 228 392 260 400 q 292 409 324 409 z m 85 181 q 85 142 97 110 q 109 77 132 53 q 154 29 186 16 q 218 2 259 2 q 313 2 357 19 q 401 36 432 66 q 463 96 480 138 q 497 179 497 228 q 497 267 485 298 q 472 330 450 352 q 428 375 396 387 q 364 399 324 399 q 270 399 226 380 q 182 360 150 329 q 119 298 102 259 q 85 220 85 181 z"},"r":{"x_min":0,"x_max":323,"ha":323,"o":"m 57 0 l 116 492 l 118 492 q 124 492 124 485 l 104 304 q 138 397 185 446 q 232 496 286 496 q 308 496 329 488 l 327 479 q 306 486 286 486 q 258 486 232 472 q 206 457 182 430 q 159 402 138 363 q 118 324 100 274 l 68 0 z"},"2":{"x_min":0,"x_max":580,"ha":580,"o":"m 358 708 q 392 708 422 699 q 454 690 478 670 q 502 650 516 620 q 530 590 530 549 q 530 506 516 469 q 502 433 478 400 q 454 368 422 337 q 390 306 354 274 l 61 8 q 72 9 86 10 q 100 10 117 10 l 479 10 q 484 10 484 5 l 483 0 l 45 0 l 46 4 q 46 7 47 9 q 49 11 50 12 l 334 268 q 372 302 406 334 q 439 366 464 400 q 489 433 504 469 q 518 505 518 548 q 518 586 505 615 q 492 643 469 662 q 446 680 418 689 q 388 698 357 698 q 318 698 284 686 q 250 674 222 652 q 194 630 174 600 q 154 570 144 534 q 142 526 135 526 l 130 526 q 140 568 162 602 q 183 636 213 659 q 242 682 280 695 q 316 708 358 708 z"},"{":{"x_min":0,"x_max":276,"ha":276,"o":"m 115 240 q 115 271 96 290 q 76 310 45 310 l 46 320 q 64 320 81 327 q 98 334 110 348 q 122 362 130 384 q 137 405 137 434 q 137 452 136 472 q 134 491 132 510 q 131 530 130 550 q 128 569 128 587 q 128 624 138 654 q 148 684 166 706 q 183 728 206 739 q 230 751 257 751 l 283 751 l 283 747 q 282 742 276 742 l 256 742 q 232 742 211 732 q 190 722 174 702 q 158 683 148 654 q 139 625 139 587 q 139 569 140 549 q 142 530 144 509 q 145 489 146 470 q 148 450 148 433 q 148 403 140 382 q 132 360 120 346 q 108 332 94 324 q 80 317 67 315 q 78 313 88 308 q 98 302 106 293 q 114 284 120 270 q 125 258 125 241 q 125 210 116 180 q 106 149 95 118 q 84 88 74 56 q 65 24 65 -10 q 65 -33 71 -52 q 78 -70 89 -84 q 100 -98 116 -105 q 132 -112 151 -112 l 172 -112 q 177 -112 177 -117 l 176 -121 l 150 -121 q 128 -121 110 -112 q 92 -104 80 -88 q 68 -73 61 -53 q 54 -32 54 -9 q 54 26 64 57 q 73 88 84 118 q 96 148 106 178 q 115 208 115 240 z"},"9":{"x_min":0,"x_max":580,"ha":580,"o":"m 305 307 q 262 307 229 320 q 196 333 173 356 q 150 380 138 412 q 126 444 126 481 q 126 530 145 572 q 164 614 198 644 q 230 674 274 691 q 318 708 368 708 q 408 708 440 694 q 472 681 496 656 q 519 632 532 598 q 545 564 545 522 q 545 490 538 464 q 530 438 516 412 q 501 386 479 357 q 458 328 429 293 l 198 3 q 196 0 195 0 q 194 0 192 0 l 182 0 q 265 104 324 176 q 382 249 421 298 q 460 347 482 377 q 503 407 512 426 q 496 398 474 376 q 452 354 424 339 q 397 324 366 315 q 336 307 305 307 z m 533 525 q 533 562 521 594 q 509 626 487 649 q 466 672 435 685 q 404 698 367 698 q 318 698 277 682 q 235 666 204 638 q 174 610 156 570 q 138 530 138 481 q 138 444 150 413 q 162 383 184 362 q 206 340 236 328 q 267 317 305 317 q 357 317 399 336 q 442 354 471 384 q 501 414 517 451 q 533 488 533 525 z"}," ":{"x_min":0,"x_max":193,"ha":193,"o":""},"I":{"x_min":0,"x_max":268,"ha":268,"o":"m 110 0 l 98 0 l 184 700 l 196 700 z"},"H":{"x_min":0,"x_max":696,"ha":696,"o":"m 555 0 l 543 0 l 586 350 l 135 350 l 92 0 l 80 0 l 166 700 l 178 700 l 136 361 l 587 361 l 629 700 l 641 700 z"},"4":{"x_min":0,"x_max":580,"ha":580,"o":"m 408 226 l 556 226 l 555 222 q 555 216 547 216 l 406 216 l 380 0 l 369 0 l 396 216 l 48 216 q 42 216 41 217 q 40 218 39 221 l 39 225 l 459 701 l 466 701 z m 450 661 q 451 671 454 680 l 52 226 l 396 226 z"},"~":{"x_min":0,"x_max":580,"ha":580,"o":"m 368 264 q 389 264 406 272 q 422 280 434 293 q 446 306 453 325 q 460 343 460 364 l 470 364 q 470 342 463 322 q 456 302 444 287 q 430 272 412 263 q 392 254 368 254 q 342 254 314 265 q 286 276 258 290 q 230 304 203 315 q 176 326 152 326 q 131 326 114 318 q 98 310 86 297 q 74 284 67 265 q 60 247 60 226 l 50 226 q 50 248 57 268 q 64 288 76 303 q 90 318 108 327 q 128 336 152 336 q 178 336 206 325 q 234 314 262 300 q 290 286 317 275 q 344 264 368 264 z"},"D":{"x_min":0,"x_max":705,"ha":705,"o":"m 656 406 q 656 310 630 235 q 604 160 557 108 q 511 56 448 28 q 384 0 310 0 l 80 0 l 166 700 l 396 700 q 456 700 504 680 q 552 660 586 622 q 620 584 638 529 q 656 474 656 406 z m 643 406 q 643 472 626 525 q 608 578 576 615 q 544 652 498 671 q 452 690 395 690 l 177 690 l 93 10 l 311 10 q 382 10 443 36 q 504 63 548 114 q 592 164 618 238 q 643 312 643 406 z"},"^":{"x_min":0,"x_max":580,"ha":580,"o":"m 484 406 l 477 406 q 470 406 467 413 l 327 666 q 324 671 322 676 q 320 680 318 686 q 314 676 309 666 l 169 413 q 168 410 165 408 q 163 406 159 406 l 152 406 l 315 700 l 321 700 z"},"0":{"x_min":0,"x_max":580,"ha":580,"o":"m 347 708 q 391 708 429 690 q 468 672 496 637 q 524 602 540 548 q 556 494 556 422 q 556 313 532 232 q 507 152 466 98 q 424 45 371 19 q 317 -7 259 -7 q 214 -7 176 11 q 138 28 110 64 q 82 100 66 153 q 50 207 50 279 q 50 388 74 469 q 99 550 140 603 q 182 656 235 682 q 289 708 347 708 z m 260 3 q 316 3 367 28 q 418 53 458 105 q 497 156 520 236 q 544 314 544 422 q 544 492 529 544 q 514 596 487 630 q 460 664 424 681 q 388 698 346 698 q 290 698 239 673 q 188 648 148 596 q 109 544 86 466 q 62 386 62 279 q 62 209 77 157 q 92 106 119 71 q 146 37 182 20 q 218 3 260 3 z"},"F":{"x_min":0,"x_max":531,"ha":531,"o":"m 541 689 l 176 689 l 135 351 l 454 351 l 452 340 l 134 340 l 92 0 l 80 0 l 166 700 l 543 700 z"},"`":{"x_min":0,"x_max":258,"ha":258,"o":"m 98 708 q 106 708 109 706 q 113 704 116 697 l 177 579 l 170 579 q 166 579 163 583 l 85 708 z"},"k":{"x_min":0,"x_max":413,"ha":413,"o":"m 157 720 l 102 268 l 123 268 q 130 268 135 270 q 140 271 147 277 l 386 482 q 390 486 394 488 q 398 490 404 490 l 412 490 l 157 273 q 150 267 144 264 q 150 262 154 259 q 158 256 162 252 l 370 0 l 362 0 q 358 0 355 1 q 352 2 349 6 l 153 245 q 146 254 139 256 q 132 259 119 259 l 100 259 l 69 0 l 58 0 l 146 720 z"},"u":{"x_min":0,"x_max":498,"ha":498,"o":"m 116 490 l 79 178 q 76 152 76 128 q 76 69 98 36 q 120 4 170 4 q 201 4 233 19 q 264 34 294 63 q 324 92 351 132 q 378 172 399 222 l 431 490 l 442 490 l 383 0 l 380 0 q 376 0 375 2 q 374 4 374 7 l 397 197 l 397 200 q 377 153 351 115 q 325 77 295 50 q 265 23 233 8 q 201 -6 169 -6 q 115 -6 90 29 q 64 64 64 128 q 64 139 66 152 q 66 164 68 178 l 105 490 z"},"]":{"x_min":0,"x_max":276,"ha":276,"o":"m 11 -118 q 11 -112 19 -112 l 128 -112 l 233 742 l 124 742 q 120 742 119 744 q 118 745 118 748 l 118 751 l 245 751 l 138 -121 l 11 -121 z"},"U":{"x_min":0,"x_max":677,"ha":677,"o":"m 309 2 q 360 2 404 22 q 448 42 481 78 q 514 112 534 160 q 556 206 562 260 l 616 700 l 628 700 l 574 260 q 567 204 545 156 q 522 107 488 70 q 453 34 407 12 q 361 -9 307 -9 q 258 -9 221 8 q 183 26 157 56 q 132 86 118 128 q 104 170 104 218 q 104 228 105 238 q 106 249 107 260 l 161 700 l 173 700 l 119 261 q 118 250 117 240 q 116 229 116 218 q 116 172 129 133 q 142 93 166 64 q 190 35 226 18 q 262 2 309 2 z"},"o":{"x_min":0,"x_max":486,"ha":486,"o":"m 211 4 q 260 4 301 29 q 342 54 371 96 q 400 138 416 190 q 432 244 432 299 q 432 343 421 378 q 410 413 390 438 q 369 462 340 475 q 311 488 275 488 q 242 488 213 476 q 184 465 159 445 q 134 424 115 397 q 96 369 82 336 q 68 304 61 267 q 54 230 54 193 q 54 149 65 114 q 76 79 96 54 q 116 30 146 17 q 174 4 211 4 z m 210 -6 q 171 -6 140 8 q 108 22 87 48 q 65 74 54 110 q 42 147 42 193 q 42 232 50 269 q 57 306 71 340 q 86 374 106 403 q 126 432 152 453 q 178 474 209 486 q 240 498 276 498 q 315 498 346 484 q 377 470 399 444 q 420 418 432 381 q 444 344 444 299 q 444 261 436 224 q 429 186 415 152 q 400 118 380 89 q 360 60 334 39 q 308 18 277 6 q 246 -6 210 -6 z"},"N":{"x_min":0,"x_max":695,"ha":695,"o":"m 170 700 q 174 700 176 696 l 548 22 q 548 24 548 27 q 548 30 549 32 l 631 700 l 641 700 l 555 0 l 553 0 q 550 0 546 5 l 173 681 q 172 678 172 676 q 172 674 172 672 q 172 670 172 669 l 90 0 l 80 0 l 166 700 l 170 700 z"},"+":{"x_min":0,"x_max":580,"ha":580,"o":"m 335 575 l 306 340 l 532 340 l 531 330 l 305 330 l 276 94 l 266 94 l 295 330 l 70 330 l 71 340 l 296 340 l 325 575 z"},"G":{"x_min":0,"x_max":700,"ha":700,"o":"m 348 2 q 388 2 420 7 q 453 12 482 21 q 510 30 536 43 q 562 56 589 74 l 616 291 l 472 291 q 467 291 467 296 l 467 301 l 628 301 l 599 69 q 573 52 546 37 q 518 23 488 13 q 458 3 423 -2 q 388 -8 347 -8 q 284 -8 235 13 q 186 34 151 74 q 116 114 98 169 q 79 225 79 294 q 79 388 106 465 q 132 542 180 596 q 228 650 296 679 q 363 708 445 708 q 481 708 510 703 q 540 698 564 689 q 589 679 610 664 q 631 648 650 628 l 649 626 q 648 624 647 623 q 646 622 642 622 q 640 622 634 628 q 629 634 620 642 q 610 650 595 660 q 580 670 559 678 q 538 686 510 692 q 481 698 444 698 q 366 698 300 670 q 236 642 189 590 q 142 538 117 462 q 91 388 91 294 q 91 227 109 173 q 127 119 160 81 q 194 43 242 22 q 289 2 348 2 z"},"q":{"x_min":0,"x_max":477,"ha":477,"o":"m 339 -180 l 337 -180 q 332 -180 330 -178 q 328 -176 328 -170 q 328 -168 328 -166 q 328 -162 328 -159 l 374 210 q 355 162 331 123 q 306 83 278 54 q 250 26 219 10 q 188 -6 155 -6 q 122 -6 100 6 q 77 19 63 42 q 48 64 42 95 q 35 126 35 163 q 35 205 46 246 q 57 287 76 324 q 96 361 123 392 q 150 424 182 447 q 214 470 251 483 q 287 496 325 496 q 352 496 374 491 q 397 486 418 472 z m 155 4 q 187 4 218 20 q 249 37 278 68 q 306 98 332 142 q 357 186 378 240 l 406 467 q 388 477 368 482 q 348 486 325 486 q 289 486 254 474 q 220 461 189 439 q 158 417 132 386 q 106 356 87 320 q 68 284 58 244 q 47 204 47 163 q 47 126 53 97 q 60 68 72 47 q 86 26 106 15 q 126 4 155 4 z"},"d":{"x_min":0,"x_max":497,"ha":497,"o":"m 373 0 q 369 0 368 2 q 367 4 367 7 l 392 216 q 372 167 346 126 q 320 86 291 56 q 262 26 230 10 q 197 -6 164 -6 q 132 -6 108 7 q 84 20 68 42 q 52 65 44 96 q 37 127 37 163 q 37 198 44 237 q 52 276 66 313 q 80 350 101 384 q 122 417 148 442 q 174 468 206 482 q 238 497 276 497 q 319 497 356 476 q 394 456 414 412 l 453 720 l 464 720 l 376 0 z m 164 4 q 196 4 228 20 q 260 37 290 68 q 320 99 346 143 q 372 187 394 242 l 412 396 q 400 421 385 438 q 370 456 352 466 q 334 478 315 482 q 296 487 275 487 q 239 487 208 472 q 178 458 152 434 q 127 409 108 377 q 88 344 75 308 q 62 272 55 235 q 48 198 48 163 q 48 126 56 97 q 63 68 78 47 q 92 26 114 15 q 136 4 164 4 z"},"1":{"x_min":0,"x_max":580,"ha":580,"o":"m 135 10 l 305 10 l 385 658 l 392 688 l 189 523 q 186 521 184 521 q 180 521 178 525 l 177 527 l 395 704 l 402 704 l 317 10 l 483 10 l 482 0 l 134 0 z"},"5":{"x_min":0,"x_max":580,"ha":580,"o":"m 534 696 q 532 689 526 689 l 243 689 l 158 411 q 196 421 229 425 q 262 430 292 430 q 342 430 380 416 q 418 404 444 380 q 469 357 482 324 q 494 292 494 252 q 494 190 472 142 q 450 94 413 60 q 376 27 328 10 q 280 -8 230 -8 q 203 -8 179 -4 q 154 0 134 8 q 113 15 96 24 q 80 34 67 44 l 70 48 q 72 51 76 51 q 80 51 91 44 q 102 36 121 28 q 140 18 167 11 q 194 4 231 4 q 280 4 325 20 q 370 36 405 68 q 440 99 460 145 q 481 192 481 252 q 481 289 470 320 q 458 350 435 373 q 412 395 375 408 q 339 420 289 420 q 260 420 226 416 q 192 411 153 401 l 145 405 l 234 700 l 534 700 z"}}}
